<svg xmlns="http://www.w3.org/2000/svg" viewBox="0 0 64 48" role="img" aria-hidden="true">
  <rect width="64" height="48" fill="#fff"/>
  <g fill="#b22234">
    <rect width="64" height="3.69" y="0"/>
    <rect width="64" height="3.69" y="7.38"/>
    <rect width="64" height="3.69" y="14.76"/>
    <rect width="64" height="3.69" y="22.14"/>
    <rect width="64" height="3.69" y="29.52"/>
    <rect width="64" height="3.69" y="36.90"/>
    <rect width="64" height="3.69" y="44.28"/>
  </g>
  <rect width="28" height="25.85" fill="#3c3b6e"/>
  <g fill="#fff">
    <circle cx="3.5" cy="3.2" r="1.1"/><circle cx="9.5" cy="3.2" r="1.1"/><circle cx="15.5" cy="3.2" r="1.1"/><circle cx="21.5" cy="3.2" r="1.1"/>
    <circle cx="6.5" cy="6.4" r="1.1"/><circle cx="12.5" cy="6.4" r="1.1"/><circle cx="18.5" cy="6.4" r="1.1"/><circle cx="24.5" cy="6.4" r="1.1"/>
    <circle cx="3.5" cy="9.6" r="1.1"/><circle cx="9.5" cy="9.6" r="1.1"/><circle cx="15.5" cy="9.6" r="1.1"/><circle cx="21.5" cy="9.6" r="1.1"/>
    <circle cx="6.5" cy="12.8" r="1.1"/><circle cx="12.5" cy="12.8" r="1.1"/><circle cx="18.5" cy="12.8" r="1.1"/><circle cx="24.5" cy="12.8" r="1.1"/>
    <circle cx="3.5" cy="16" r="1.1"/><circle cx="9.5" cy="16" r="1.1"/><circle cx="15.5" cy="16" r="1.1"/><circle cx="21.5" cy="16" r="1.1"/>
    <circle cx="6.5" cy="19.2" r="1.1"/><circle cx="12.5" cy="19.2" r="1.1"/><circle cx="18.5" cy="19.2" r="1.1"/><circle cx="24.5" cy="19.2" r="1.1"/>
    <circle cx="3.5" cy="22.4" r="1.1"/><circle cx="9.5" cy="22.4" r="1.1"/><circle cx="15.5" cy="22.4" r="1.1"/><circle cx="21.5" cy="22.4" r="1.1"/>
  </g>
</svg>
